<svg height="327pt" viewBox="-5 1 327 327.541" width="327pt" xmlns="http://www.w3.org/2000/svg"><path d="m158.8125 246 114.800781-32.800781v-174.933594l-114.800781 43.734375zm0 0" fill="#cfdfe8"/><path d="m158.8125 246-114.800781-32.800781v-174.933594l114.800781 43.734375zm0 0" fill="#87cee9"/><path d="m158.8125 246h-136.667969v-164h21.867188v131.199219zm0 0" fill="#e9686a"/><path d="m22.144531 246v-164h21.867188v-21.867188h-32.800781c-6.039063 0-10.933594 4.894532-10.933594 10.933594v185.867188c0 6.039062 4.894531 10.933594 10.933594 10.933594h147.601562v-21.867188zm0 0" fill="#fdbd40"/><path d="m158.8125 246h136.664062v-164h-21.863281v131.199219zm0 0" fill="#fdbd40"/><path d="m295.476562 246v-164h-21.863281v-21.867188h32.796875c6.039063 0 10.933594 4.894532 10.933594 10.933594v185.867188c0 6.039062-4.894531 10.933594-10.933594 10.933594h-147.597656v-21.867188zm0 0" fill="#e9686a"/><g fill="#5f79ba"><path d="m131.476562 267.867188h54.667969c0 12.078124-9.789062 21.867187-21.867187 21.867187h-10.933594c-12.074219 0-21.867188-9.789063-21.867188-21.867187zm0 0"/><path d="m136.949219 109.335938c-.546875 0-1.089844-.082032-1.609375-.246094l-71.066406-21.867188c-2.886719-.886718-4.507813-3.945312-3.617188-6.828125.886719-2.886719 3.945312-4.503906 6.828125-3.617187l71.066406 21.867187c2.886719.886719 4.503907 3.949219 3.617188 6.835938-.707031 2.289062-2.824219 3.855469-5.21875 3.855469zm0 0"/><path d="m136.949219 131.203125c-.546875 0-1.089844-.082031-1.609375-.246094l-71.066406-21.867187c-2.886719-.886719-4.507813-3.945313-3.617188-6.828125.886719-2.886719 3.945312-4.507813 6.828125-3.617188l71.066406 21.863281c2.886719.890626 4.503907 3.953126 3.617188 6.835938-.707031 2.292969-2.824219 3.855469-5.21875 3.859375zm0 0"/><path d="m136.949219 153.070312c-.546875-.003906-1.089844-.085937-1.609375-.246093l-71.066406-21.867188c-2.886719-.886719-4.507813-3.945312-3.617188-6.832031.886719-2.882812 3.945312-4.503906 6.828125-3.617188l71.066406 21.867188c2.886719.890625 4.503907 3.949219 3.617188 6.835938-.707031 2.292968-2.824219 3.855468-5.21875 3.859374zm0 0"/><path d="m136.949219 174.9375c-.546875-.003906-1.089844-.085938-1.609375-.246094l-71.066406-21.867187c-2.886719-.886719-4.507813-3.945313-3.617188-6.832031.886719-2.882813 3.945312-4.503907 6.828125-3.617188l71.066406 21.867188c2.886719.890624 4.503907 3.949218 3.617188 6.835937-.707031 2.292969-2.824219 3.855469-5.21875 3.859375zm0 0"/><path d="m136.949219 196.800781c-.546875 0-1.089844-.082031-1.609375-.242187l-71.066406-21.867188c-2.886719-.886718-4.507813-3.945312-3.617188-6.832031.886719-2.882813 3.945312-4.503906 6.828125-3.617187l71.066406 21.867187c2.886719.890625 4.503907 3.949219 3.617188 6.835937-.707031 2.289063-2.824219 3.855469-5.21875 3.855469zm0 0"/><path d="m136.949219 218.667969c-.546875 0-1.089844-.082031-1.609375-.246094l-71.066406-21.863281c-2.886719-.890625-4.507813-3.945313-3.617188-6.832032.886719-2.886718 3.945312-4.503906 6.828125-3.617187l71.066406 21.867187c2.886719.890626 4.503907 3.949219 3.617188 6.835938-.707031 2.289062-2.824219 3.855469-5.21875 3.855469zm0 0"/><path d="m251.746094 147.597656-71.066406 21.871094v-65.601562l71.066406-21.867188zm0 0"/><path d="m180.675781 196.800781c-3.019531 0-5.464843-2.453125-5.460937-5.472656 0-2.398437 1.566406-4.511719 3.855468-5.21875l71.066407-21.867187c2.886719-.886719 5.945312.734374 6.832031 3.617187.886719 2.886719-.730469 5.945313-3.617188 6.832031l-71.066406 21.867188c-.519531.160156-1.0625.242187-1.609375.242187zm0 0"/></g><path d="m208.011719 21.867188c-9.054688-.011719-16.390625-7.347657-16.398438-16.402344 0-3.015625-2.449219-5.464844-5.46875-5.464844s-5.464843 2.449219-5.464843 5.464844c-.011719 9.054687-7.347657 16.390625-16.402344 16.402344-3.019532 0-5.464844 2.445312-5.464844 5.464843s2.445312 5.46875 5.464844 5.46875c9.054687.007813 16.390625 7.34375 16.402344 16.398438 0 3.019531 2.445312 5.46875 5.464843 5.46875s5.46875-2.449219 5.46875-5.46875c.007813-9.054688 7.34375-16.390625 16.398438-16.398438 3.019531 0 5.464843-2.449219 5.464843-5.46875s-2.445312-5.464843-5.464843-5.464843zm-21.867188 11.101562c-1.59375-2.144531-3.492187-4.042969-5.636719-5.636719 2.144532-1.59375 4.042969-3.492187 5.636719-5.632812 1.59375 2.140625 3.492188 4.039062 5.636719 5.632812-2.144531 1.59375-4.042969 3.492188-5.636719 5.636719zm0 0" fill="#fcf05a"/><path d="m87.746094 295.199219c-9.054688-.007813-16.390625-7.34375-16.402344-16.398438 0-3.019531-2.445312-5.46875-5.464844-5.46875-3.019531 0-5.46875 2.449219-5.46875 5.46875-.007812 9.054688-7.34375 16.390625-16.398437 16.398438-3.019531 0-5.46875 2.449219-5.46875 5.46875s2.449219 5.464843 5.46875 5.464843c9.054687.011719 16.390625 7.347657 16.398437 16.402344 0 3.015625 2.449219 5.464844 5.46875 5.464844 3.019532 0 5.464844-2.449219 5.464844-5.464844.011719-9.054687 7.347656-16.390625 16.402344-16.402344 3.019531 0 5.464844-2.445312 5.464844-5.464843s-2.445313-5.46875-5.464844-5.46875zm-21.867188 11.101562c-1.59375-2.140625-3.492187-4.039062-5.636718-5.632812 2.144531-1.59375 4.042968-3.492188 5.636718-5.636719 1.59375 2.144531 3.492188 4.042969 5.636719 5.636719-2.144531 1.59375-4.042969 3.492187-5.636719 5.632812zm0 0" fill="#fcf05a"/></svg>